<svg id="Capa_1" enable-background="new 0 0 512 512" height="512" viewBox="0 0 512 512" width="512" xmlns="http://www.w3.org/2000/svg"><g><g><path d="m423.541 144.681h-413.792v-67.466c0-12.42 10.069-22.489 22.489-22.489h368.814c12.42 0 22.489 10.069 22.489 22.489z" fill="#e28086"/></g><g><path d="m401.052 54.726h-26.986c12.42 0 22.489 10.069 22.489 22.489v67.466h26.986v-67.466c0-12.42-10.069-22.489-22.489-22.489z" fill="#dd636e"/></g><g><path d="m224.534 101.952h-15.779c-5.579 0-10.102-4.523-10.102-10.102v-74.248c0-5.579 4.523-10.102 10.102-10.102h15.779c5.579 0 10.102 4.523 10.102 10.102v74.249c0 5.579-4.523 10.101-10.102 10.101z" fill="#ffe07d"/></g><g><path d="m296.498 101.952h-15.779c-5.579 0-10.102-4.523-10.102-10.102v-74.248c0-5.579 4.523-10.102 10.102-10.102h15.779c5.579 0 10.102 4.523 10.102 10.102v74.249c0 5.579-4.523 10.101-10.102 10.101z" fill="#ffe07d"/></g><g><path d="m368.462 101.952h-15.779c-5.579 0-10.102-4.523-10.102-10.102v-74.248c0-5.579 4.523-10.102 10.102-10.102h15.779c5.579 0 10.102 4.523 10.102 10.102v74.249c-.001 5.579-4.523 10.101-10.102 10.101z" fill="#ffe07d"/></g><g><path d="m136.792 101.952h15.779c5.579 0 10.102-4.523 10.102-10.102v-74.248c0-5.579-4.523-10.102-10.102-10.102h-15.779c-5.579 0-10.102 4.523-10.102 10.102v74.249c0 5.579 4.523 10.101 10.102 10.101z" fill="#ffe07d"/></g><g><path d="m64.828 101.952h15.779c5.579 0 10.102-4.523 10.102-10.102v-74.248c0-5.579-4.523-10.102-10.102-10.102h-15.779c-5.579 0-10.102 4.523-10.102 10.102v74.249c0 5.579 4.523 10.101 10.102 10.101z" fill="#ffe07d"/></g><g><path d="m401.052 504.5h-368.814c-12.42 0-22.489-10.069-22.489-22.489v-337.33h413.792v337.33c0 12.42-10.069 22.489-22.489 22.489z" fill="#e4f6ff"/></g><g><path d="m396.554 144.681v337.33c0 12.42-10.069 22.489-22.489 22.489h26.986c12.42 0 22.489-10.069 22.489-22.489v-337.33z" fill="#b1e4f9"/></g><g><g><g><circle cx="407.799" cy="239.133" fill="#95d6a4" r="94.452"/></g><g><path d="m462.753 162.337c11.1 15.485 17.656 34.448 17.656 54.954 0 52.165-42.288 94.452-94.452 94.452-20.506 0-39.47-6.556-54.954-17.656 17.138 23.907 45.137 39.498 76.796 39.498 52.165 0 94.452-42.288 94.452-94.452 0-31.658-15.592-59.658-39.498-76.796z" fill="#78c2a4"/></g></g><g><g><g><path d="m397.679 284.111c-4.604 0-9.208-1.757-12.721-5.27l-26.986-26.986c-7.026-7.026-7.026-18.417 0-25.443s18.417-7.026 25.443 0l14.265 14.265 34.505-34.505c7.026-7.026 18.417-7.026 25.443 0s7.026 18.417 0 25.443l-47.228 47.226c-3.513 3.513-8.117 5.27-12.721 5.27z" fill="#e4f6ff"/></g></g></g></g><g><path d="m423.54 390.79c-4.142 0-7.5 3.357-7.5 7.5v83.72c0 8.266-6.725 14.99-14.99 14.99h-368.81c-8.266 0-14.99-6.725-14.99-14.99v-237.6c0-4.143-3.358-7.5-7.5-7.5s-7.5 3.357-7.5 7.5v237.6c0 16.537 13.454 29.99 29.99 29.99h368.81c16.537 0 29.99-13.453 29.99-29.99v-83.72c0-4.143-3.358-7.5-7.5-7.5z"/><path d="m165.634 295.532c4.142 0 7.5-3.357 7.5-7.5v-93.624c0-4.143-3.358-7.5-7.5-7.5h-20.445c-4.142 0-7.5 3.357-7.5 7.5s3.358 7.5 7.5 7.5h12.945v86.124c0 4.143 3.358 7.5 7.5 7.5z"/><path d="m268.214 200.415c-.524-6.288-4.207-11.386-9.381-12.988-2.442-.755-8.764-1.726-14.718 5.579-5.401 6.628-32.438 55.476-37.804 65.2-1.282 2.323-1.241 5.151.108 7.437 1.349 2.284 3.805 3.687 6.458 3.687h40.273c-.049 6.603-.1 12.948-.15 18.637-.037 4.142 3.291 7.529 7.433 7.566h.068c4.111 0 7.462-3.314 7.498-7.434.021-2.287.083-9.448.152-18.77h4.793c4.142 0 7.5-3.357 7.5-7.5s-3.358-7.5-7.5-7.5h-4.689c.148-23.298.25-50.415-.041-53.914zm-14.961 53.914h-27.641c10.015-17.977 22.272-39.593 27.754-48.323.087 8.657.013 28.285-.113 48.323z"/><path d="m316.056 468.859c.812.281 1.638.414 2.451.414 3.108 0 6.015-1.948 7.088-5.051l33.071-95.652c1.354-3.915-.723-8.186-4.638-9.539-3.913-1.356-8.186.723-9.539 4.637l-16.631 48.102-17.07-48.157c-1.383-3.904-5.669-5.944-9.575-4.563-3.904 1.384-5.947 5.671-4.563 9.575l23.35 65.873-8.582 24.822c-1.354 3.915.723 8.186 4.638 9.539z"/><path d="m185.203 398.192c0 21.792 17.729 39.521 39.521 39.521 9.259 0 17.777-3.209 24.521-8.562v5.319c0 4.143 3.358 7.5 7.5 7.5s7.5-3.357 7.5-7.5v-72.558c0-4.143-3.358-7.5-7.5-7.5s-7.5 3.357-7.5 7.5v5.319c-6.744-5.353-15.262-8.561-24.521-8.561-21.792.002-39.521 17.73-39.521 39.522zm39.521-24.52c13.521 0 24.521 11 24.521 24.521s-11 24.521-24.521 24.521-24.521-11-24.521-24.521 11-24.521 24.521-24.521z"/><path d="m74.212 398.192c0 21.821 17.753 39.574 39.574 39.574 9.28 0 17.818-3.219 24.574-8.589v1.089c0 4.143 3.358 7.5 7.5 7.5s7.5-3.357 7.5-7.5v-95.652c0-4.143-3.358-7.5-7.5-7.5s-7.5 3.357-7.5 7.5v32.594c-6.756-5.369-15.294-8.589-24.574-8.589-21.821 0-39.574 17.753-39.574 39.573zm64.148 0c0 13.55-11.024 24.574-24.574 24.574s-24.574-11.024-24.574-24.574 11.024-24.573 24.574-24.573 24.574 11.024 24.574 24.573z"/><path d="m509.75 239.13c0-26.371-10.04-51.393-28.27-70.453-2.863-2.995-7.611-3.101-10.604-.236-2.994 2.862-3.1 7.61-.236 10.604 15.547 16.257 24.11 37.596 24.11 60.086 0 47.95-39.006 86.96-86.95 86.96s-86.95-39.01-86.95-86.96c0-47.944 39.005-86.95 86.95-86.95 12.871 0 25.248 2.742 36.787 8.151 3.75 1.756 8.216.143 9.974-3.607 1.758-3.751.143-8.217-3.608-9.975-6.432-3.015-13.086-5.315-19.913-6.909v-62.631c0-16.53-13.454-29.979-29.99-29.979h-14.986v-29.629c-.001-9.706-7.897-17.602-17.602-17.602h-15.779c-9.706 0-17.602 7.896-17.602 17.602v29.628h-20.981v-29.628c0-9.706-7.896-17.602-17.602-17.602h-15.779c-9.706 0-17.602 7.896-17.602 17.602v29.628h-20.982v-29.628c.001-9.706-7.895-17.602-17.601-17.602h-15.779c-9.706 0-17.602 7.896-17.602 17.602v29.628h-20.982v-29.628c.001-9.706-7.895-17.602-17.601-17.602h-15.779c-9.706 0-17.602 7.896-17.602 17.602v29.628h-20.981v-29.628c0-9.706-7.896-17.602-17.602-17.602h-15.778c-9.706 0-17.602 7.896-17.602 17.602v29.628h-14.986c-16.536 0-29.99 13.45-29.99 29.98v132.22c0 4.143 3.358 7.5 7.5 7.5s7.5-3.357 7.5-7.5v-57.25h337.374c-29.233 17.944-48.774 50.207-48.774 86.95 0 56.221 45.734 101.96 101.95 101.96 2.774 0 5.521-.116 8.24-.334v22.534c0 4.143 3.358 7.5 7.5 7.5s7.5-3.357 7.5-7.5v-24.875c45.055-10.546 78.71-51.058 78.71-99.285zm-159.668-221.528c0-1.435 1.167-2.602 2.602-2.602h15.779c1.435 0 2.602 1.167 2.602 2.602v74.249c0 1.435-1.167 2.602-2.602 2.602h-15.779c-1.435 0-2.602-1.167-2.602-2.602zm-69.363-2.602h15.779c1.435 0 2.602 1.167 2.602 2.602v74.249c0 1.435-1.167 2.602-2.602 2.602h-15.779c-1.435 0-2.602-1.167-2.602-2.602v-74.249c.001-1.435 1.168-2.602 2.602-2.602zm-74.565 2.602c0-1.435 1.167-2.602 2.602-2.602h15.779c1.435 0 2.602 1.167 2.602 2.602v74.249c0 1.435-1.167 2.602-2.602 2.602h-15.779c-1.435 0-2.602-1.167-2.602-2.602zm-71.964 0c0-1.435 1.167-2.602 2.602-2.602h15.779c1.435 0 2.602 1.167 2.602 2.602v74.249c0 1.435-1.167 2.602-2.602 2.602h-15.779c-1.435 0-2.602-1.167-2.602-2.602zm-69.362-2.602h15.779c1.435 0 2.602 1.167 2.602 2.602v74.249c0 1.435-1.167 2.602-2.602 2.602h-15.779c-1.435 0-2.602-1.167-2.602-2.602v-74.249c0-1.435 1.167-2.602 2.602-2.602zm-47.578 122.18v-59.97c0-8.26 6.725-14.979 14.99-14.979h14.986v29.62c0 9.705 7.896 17.602 17.602 17.602h15.779c9.706 0 17.602-7.896 17.602-17.602v-29.621h20.982v29.62c0 9.705 7.896 17.602 17.602 17.602h15.779c9.706 0 17.602-7.896 17.602-17.602v-29.62h20.982v29.62c0 9.705 7.896 17.602 17.602 17.602h15.779c9.706 0 17.602-7.896 17.602-17.602v-29.62h20.982v29.62c0 9.705 7.896 17.602 17.602 17.602h15.779c9.706 0 17.602-7.896 17.602-17.602v-29.62h20.982v29.62c0 9.705 7.896 17.602 17.602 17.602h15.779c9.706 0 17.602-7.896 17.602-17.602v-29.62h14.986c8.266 0 14.99 6.72 14.99 14.979v59.97h-398.795z"/><path d="m426.88 200.869-29.202 29.202-8.962-8.963c-9.938-9.939-26.111-9.939-36.048 0-4.815 4.814-7.467 11.216-7.467 18.025s2.651 13.21 7.466 18.024l26.986 26.986c4.815 4.814 11.216 7.467 18.024 7.467s13.209-2.652 18.024-7.467l47.227-47.226c4.814-4.814 7.466-11.216 7.466-18.025s-2.652-13.21-7.466-18.023c-4.815-4.815-11.216-7.467-18.025-7.467-6.807.001-13.208 2.653-18.023 7.467zm28.516 18.025c0 2.803-1.091 5.437-3.073 7.418l-47.227 47.226c-1.982 1.982-4.617 3.074-7.418 3.074s-5.436-1.092-7.418-3.074l-26.987-26.986c-1.981-1.981-3.072-4.615-3.072-7.417 0-2.803 1.091-5.437 3.073-7.418 2.045-2.046 4.731-3.068 7.418-3.068 2.686 0 5.373 1.023 7.418 3.067l14.265 14.266c1.406 1.407 3.314 2.197 5.303 2.197s3.897-.79 5.303-2.196l34.505-34.506c1.981-1.981 4.616-3.072 7.417-3.072 2.802 0 5.437 1.091 7.418 3.073 1.984 1.98 3.075 4.614 3.075 7.416z"/></g></g></svg>